<svg width="36" height="28" viewBox="0 0 36 28" fill="none" xmlns="http://www.w3.org/2000/svg">
<g clip-path="url(#clip0_1_301)">
<path fill-rule="evenodd" clip-rule="evenodd" d="M2.97927 14.5156C-0.243387 13.0684 0.131613 11.4553 3.36306 11.6239L4.10134 12.8247L5.56618 8.7193C6.05251 7.37592 6.8113 6.1259 8.1531 5.75763V1.6445C8.15348 1.45402 8.19634 1.26549 8.27921 1.0897C8.36209 0.913922 8.48335 0.754353 8.63605 0.620148C8.78875 0.485943 8.96987 0.379744 9.16903 0.30764C9.3682 0.235537 9.58148 0.198948 9.79665 0.199972H26.2029C26.6349 0.201342 27.0488 0.354055 27.354 0.624734C27.6593 0.895412 27.831 1.26204 27.8318 1.6445V5.64612H28.1248C30.0379 5.64612 31.1394 7.08286 31.6023 8.72448L32.7215 12.7054L33.366 11.6317C36.6883 11.4605 36.9842 13.1696 33.4685 14.6452L34.0545 15.4232C36.366 17.5265 36.1492 19.6271 35.7888 24.8217V26.5282C35.7881 26.7832 35.6733 27.0275 35.4696 27.2078C35.266 27.3881 34.99 27.4897 34.7019 27.4903H30.0496C29.7616 27.4897 29.4855 27.3881 29.2819 27.2078C29.0782 27.0275 28.9634 26.7832 28.9627 26.5282V25.7502H7.03103V26.5282C7.03025 26.7832 6.91549 27.0275 6.71182 27.2078C6.50815 27.3881 6.23214 27.4897 5.94411 27.4903H1.31814C1.03011 27.4897 0.754095 27.3881 0.550426 27.2078C0.346757 27.0275 0.231995 26.7832 0.231222 26.5282V24.3005C0.228212 24.2504 0.228212 24.2001 0.231222 24.15C-0.108622 20.1692 -0.603739 16.5695 2.97927 14.5156ZM11.5926 5.64612H13.0574V2.72854H14.1297V1.69118H10.5203V2.72854H11.5926V5.64612ZM14.1502 5.64612H15.7058L15.8406 5.12744H17.0593L17.1941 5.64612H18.7498L17.5779 1.69118H15.2927L14.1502 5.64612ZM19.0427 5.64612H20.6072L21.0935 4.60876H21.1609L21.6531 5.64612H23.2908L22.3299 3.66735L23.3582 1.69118H21.7498L21.24 2.77522H21.1668L20.657 1.6834H18.9783L19.9832 3.69847L19.0427 5.64612ZM23.9998 5.64612H25.4646V1.6834H23.9998V5.64612ZM26.2615 7.26181H9.68533C8.22048 7.26181 7.4822 8.37956 7.0486 9.60884L5.63357 13.7298H31.0691L29.947 9.60106C29.6541 8.34326 28.7547 7.26699 27.3103 7.26699L26.2615 7.26181ZM16.406 2.93861L16.1131 4.09008H16.7869L16.4939 2.94379L16.406 2.93861ZM8.90017 19.2433L4.78103 18.7843C3.80837 18.6883 3.54763 19.0436 3.87868 19.7931L4.324 20.7501C4.4498 20.9746 4.64221 21.1647 4.88064 21.2999C5.16117 21.4442 5.47905 21.5219 5.80349 21.5255L9.47732 21.5515C10.3562 21.5515 10.7488 21.2351 10.4705 20.5141C10.3718 20.1923 10.1718 19.9019 9.89373 19.6769C9.61569 19.4519 9.2711 19.3015 8.90017 19.2433ZM27.0994 19.2433L31.2185 18.7843C32.1912 18.6883 32.4519 19.0436 32.1209 19.7931L31.6756 20.7501C31.5498 20.9746 31.3573 21.1647 31.1189 21.2999C30.8384 21.4442 30.5205 21.5219 30.1961 21.5255L26.5222 21.5515C25.6433 21.5515 25.2508 21.2351 25.5291 20.5141C25.6278 20.1923 25.8278 19.9019 26.1058 19.6769C26.3839 19.4519 26.7285 19.3015 27.0994 19.2433Z" fill="#FFA726"/>
</g>
<defs>
<clipPath id="clip0_1_301">
<rect width="36" height="27.28" fill="white" transform="translate(0 0.199951)"/>
</clipPath>
</defs>
</svg>
