<svg width="40" height="30" viewBox="0 0 40 30" fill="none" xmlns="http://www.w3.org/2000/svg">
<rect width="40" height="30" fill="#F7F7F7"/>
<rect id="Rectangle 1" x="-410" y="-2502" width="1920" height="4480" fill="#D9D9D9"/>
<rect id="Rectangle 13" x="-410" y="-322" width="1920" height="725" fill="white"/>
<g id="Group 7">
<rect id="Rectangle 14" x="-20" y="-25" width="360" height="260" rx="8" fill="#F5F5F5"/>
<g id="quotation-mark-icon 1" clip-path="url(#clip0_0_1)">
<path id="Vector" fill-rule="evenodd" clip-rule="evenodd" d="M16.5837 2.68595C10.236 4.46772 6.10476 8.19331 5.07741 14.6769C4.79773 16.4413 5.18835 15.1085 6.37038 14.2137C10.2298 11.292 17.818 12.326 18.8712 19.0009C20.9899 30.8172 6.38757 32.863 2.06569 26.3367C1.06023 24.8198 0.3946 23.049 0.154757 21.1044C-0.88665 12.647 3.39694 5.11434 10.9219 1.5761C12.3141 0.921568 13.7813 0.409329 15.3602 0.0338446C16.1509 -0.128206 16.7251 0.307355 16.9899 1.0433C17.2141 1.67175 17.2907 2.36501 16.5837 2.68595ZM37.504 2.68595C31.1563 4.46772 27.0243 8.19331 25.9977 14.6769C25.718 16.4413 26.1087 15.1085 27.2907 14.2137C31.1501 11.292 38.7384 12.326 39.7907 19.0009C41.9102 30.8172 27.3079 32.863 22.986 26.3367C21.9805 24.8198 21.3149 23.049 21.0751 21.1044C20.0337 12.647 24.3165 5.11434 31.8423 1.5761C33.2344 0.921568 34.7009 0.409329 36.2805 0.0338446C37.0712 -0.128206 37.6454 0.307355 37.9102 1.0433C38.1344 1.67175 38.211 2.36501 37.504 2.68595Z" fill="#FFA726"/>
</g>
</g>
<defs>
<clipPath id="clip0_0_1">
<rect width="40" height="30" fill="white"/>
</clipPath>
</defs>
</svg>
