<svg width="159" height="25" viewBox="0 0 159 25" fill="none" xmlns="http://www.w3.org/2000/svg">
<g clip-path="url(#clip0_1_351)">
<path d="M14.1547 0.426995L17.6066 8.26218L26.3671 9.02221C26.5054 9.03322 26.6373 9.08377 26.7462 9.16748C26.855 9.25119 26.9359 9.36433 26.9786 9.49263C27.0214 9.62093 27.0241 9.75866 26.9865 9.88846C26.9488 10.0183 26.8724 10.1343 26.767 10.222L20.1357 15.8369L22.0912 24.1631C22.1117 24.2506 22.1141 24.3411 22.0984 24.4296C22.0827 24.518 22.0492 24.6025 21.9998 24.6783C21.9504 24.754 21.886 24.8196 21.8105 24.8711C21.7349 24.9227 21.6496 24.9592 21.5595 24.9787C21.373 25.0169 21.1786 24.9815 21.019 24.8805L13.4933 20.5167L5.94793 24.9018C5.8691 24.9482 5.78159 24.9791 5.69045 24.9925C5.59931 25.006 5.50633 25.0017 5.41687 24.9801C5.32741 24.9585 5.24324 24.9199 5.16921 24.8665C5.09518 24.8131 5.03275 24.746 4.98552 24.6691C4.93822 24.5938 4.90669 24.5101 4.89274 24.4229C4.87879 24.3357 4.88269 24.2467 4.90422 24.161L6.86199 15.8348L0.23943 10.222C0.100227 10.102 0.0149208 9.93384 0.00177879 9.75348C-0.0113633 9.57311 0.0487041 9.39492 0.169117 9.25705C0.301827 9.12494 0.482352 9.04834 0.672291 9.04356L9.39983 8.28353L12.8517 0.426995C12.9074 0.3042 12.9986 0.199791 13.1143 0.12649C13.23 0.0531884 13.3651 0.0141602 13.5032 0.0141602C13.6413 0.0141602 13.7764 0.0531884 13.8921 0.12649C14.0078 0.199791 14.099 0.3042 14.1547 0.426995Z" fill="#FFA726"/>
</g>
<g clip-path="url(#clip1_1_351)">
<path d="M47.1547 0.426995L50.6066 8.26218L59.3671 9.02221C59.5054 9.03322 59.6373 9.08377 59.7462 9.16748C59.855 9.25119 59.9359 9.36433 59.9786 9.49263C60.0214 9.62093 60.0241 9.75866 59.9865 9.88846C59.9488 10.0183 59.8724 10.1343 59.767 10.222L53.1357 15.8369L55.0912 24.1631C55.1117 24.2506 55.1141 24.3411 55.0984 24.4296C55.0827 24.518 55.0492 24.6025 54.9998 24.6783C54.9504 24.754 54.886 24.8196 54.8105 24.8711C54.7349 24.9227 54.6496 24.9592 54.5595 24.9787C54.373 25.0169 54.1786 24.9815 54.019 24.8805L46.4933 20.5167L38.9479 24.9018C38.8691 24.9482 38.7816 24.9791 38.6905 24.9925C38.5993 25.006 38.5063 25.0017 38.4169 24.9801C38.3274 24.9585 38.2432 24.9199 38.1692 24.8665C38.0952 24.8131 38.0328 24.746 37.9855 24.6691C37.9382 24.5938 37.9067 24.5101 37.8927 24.4229C37.8788 24.3357 37.8827 24.2467 37.9042 24.161L39.862 15.8348L33.2394 10.222C33.1002 10.102 33.0149 9.93384 33.0018 9.75348C32.9886 9.57311 33.0487 9.39492 33.1691 9.25705C33.3018 9.12494 33.4824 9.04834 33.6723 9.04356L42.3998 8.28353L45.8517 0.426995C45.9074 0.3042 45.9986 0.199791 46.1143 0.12649C46.23 0.0531884 46.3651 0.0141602 46.5032 0.0141602C46.6413 0.0141602 46.7764 0.0531884 46.8921 0.12649C47.0078 0.199791 47.099 0.3042 47.1547 0.426995Z" fill="#FFA726"/>
</g>
<g clip-path="url(#clip2_1_351)">
<path d="M80.1547 0.412835L83.6066 8.24802L92.3671 9.00805C92.5054 9.01906 92.6373 9.06961 92.7462 9.15332C92.855 9.23703 92.9359 9.35017 92.9786 9.47847C93.0214 9.60677 93.0241 9.7445 92.9865 9.8743C92.9488 10.0041 92.8724 10.1202 92.767 10.2079L86.1357 15.8227L88.0912 24.149C88.1117 24.2364 88.1141 24.327 88.0984 24.4154C88.0827 24.5038 88.0492 24.5883 87.9998 24.6641C87.9504 24.7399 87.886 24.8054 87.8105 24.857C87.7349 24.9085 87.6496 24.9451 87.5595 24.9645C87.373 25.0027 87.1786 24.9674 87.019 24.8663L79.4933 20.5025L71.9479 24.8876C71.8691 24.9341 71.7816 24.9649 71.6905 24.9784C71.5993 24.9918 71.5063 24.9876 71.4169 24.966C71.3274 24.9443 71.2432 24.9057 71.1692 24.8523C71.0952 24.7989 71.0328 24.7319 70.9855 24.6549C70.9382 24.5796 70.9067 24.4959 70.8927 24.4088C70.8788 24.3216 70.8827 24.2325 70.9042 24.1468L72.862 15.8206L66.2394 10.2079C66.1002 10.0879 66.0149 9.91968 66.0018 9.73932C65.9886 9.55895 66.0487 9.38076 66.1691 9.24289C66.3018 9.11078 66.4824 9.03418 66.6723 9.0294L75.3998 8.26937L78.8517 0.412835C78.9074 0.290039 78.9986 0.18563 79.1143 0.112329C79.23 0.0390283 79.3651 0 79.5032 0C79.6413 0 79.7764 0.0390283 79.8921 0.112329C80.0078 0.18563 80.099 0.290039 80.1547 0.412835Z" fill="#FFA726"/>
</g>
<g clip-path="url(#clip3_1_351)">
<path d="M113.155 0.426995L116.607 8.26218L125.367 9.02221C125.505 9.03322 125.637 9.08377 125.746 9.16748C125.855 9.25119 125.936 9.36433 125.979 9.49263C126.021 9.62093 126.024 9.75866 125.986 9.88846C125.949 10.0183 125.872 10.1343 125.767 10.222L119.136 15.8369L121.091 24.1631C121.112 24.2506 121.114 24.3411 121.098 24.4296C121.083 24.518 121.049 24.6025 121 24.6783C120.95 24.754 120.886 24.8196 120.81 24.8711C120.735 24.9227 120.65 24.9592 120.559 24.9787C120.373 25.0169 120.179 24.9815 120.019 24.8805L112.493 20.5167L104.948 24.9018C104.869 24.9482 104.782 24.9791 104.69 24.9925C104.599 25.006 104.506 25.0017 104.417 24.9801C104.327 24.9585 104.243 24.9199 104.169 24.8665C104.095 24.8131 104.033 24.746 103.986 24.6691C103.938 24.5938 103.907 24.5101 103.893 24.4229C103.879 24.3357 103.883 24.2467 103.904 24.161L105.862 15.8348L99.2394 10.222C99.1002 10.102 99.0149 9.93384 99.0018 9.75348C98.9886 9.57311 99.0487 9.39492 99.1691 9.25705C99.3018 9.12494 99.4824 9.04834 99.6723 9.04356L108.4 8.28353L111.852 0.426995C111.907 0.3042 111.999 0.199791 112.114 0.12649C112.23 0.0531884 112.365 0.0141602 112.503 0.0141602C112.641 0.0141602 112.776 0.0531884 112.892 0.12649C113.008 0.199791 113.099 0.3042 113.155 0.426995Z" fill="#FFA726"/>
</g>
<g clip-path="url(#clip4_1_351)">
<path d="M146.155 0.426995L149.607 8.26218L158.367 9.02221C158.505 9.03322 158.637 9.08377 158.746 9.16748C158.855 9.25119 158.936 9.36433 158.979 9.49263C159.021 9.62093 159.024 9.75866 158.986 9.88846C158.949 10.0183 158.872 10.1343 158.767 10.222L152.136 15.8369L154.091 24.1631C154.112 24.2506 154.114 24.3411 154.098 24.4296C154.083 24.518 154.049 24.6025 154 24.6783C153.95 24.754 153.886 24.8196 153.81 24.8711C153.735 24.9227 153.65 24.9592 153.559 24.9787C153.373 25.0169 153.179 24.9815 153.019 24.8805L145.493 20.5167L137.948 24.9018C137.869 24.9482 137.782 24.9791 137.69 24.9925C137.599 25.006 137.506 25.0017 137.417 24.9801C137.327 24.9585 137.243 24.9199 137.169 24.8665C137.095 24.8131 137.033 24.746 136.986 24.6691C136.938 24.5938 136.907 24.5101 136.893 24.4229C136.879 24.3357 136.883 24.2467 136.904 24.161L138.862 15.8348L132.239 10.222C132.1 10.102 132.015 9.93384 132.002 9.75348C131.989 9.57311 132.049 9.39492 132.169 9.25705C132.302 9.12494 132.482 9.04834 132.672 9.04356L141.4 8.28353L144.852 0.426995C144.907 0.3042 144.999 0.199791 145.114 0.12649C145.23 0.0531884 145.365 0.0141602 145.503 0.0141602C145.641 0.0141602 145.776 0.0531884 145.892 0.12649C146.008 0.199791 146.099 0.3042 146.155 0.426995Z" fill="#FFA726"/>
</g>
<defs>
<clipPath id="clip0_1_351">
<rect width="27" height="25" fill="white"/>
</clipPath>
<clipPath id="clip1_1_351">
<rect width="27" height="25" fill="white" transform="translate(33)"/>
</clipPath>
<clipPath id="clip2_1_351">
<rect width="27" height="25" fill="white" transform="translate(66)"/>
</clipPath>
<clipPath id="clip3_1_351">
<rect width="27" height="25" fill="white" transform="translate(99)"/>
</clipPath>
<clipPath id="clip4_1_351">
<rect width="27" height="25" fill="white" transform="translate(132)"/>
</clipPath>
</defs>
</svg>
