<svg width="16" height="16" viewBox="0 0 16 16" fill="none" xmlns="http://www.w3.org/2000/svg">
<path d="M7.00004 15.3333C6.21615 15.3333 5.47949 15.1846 4.79004 14.8871C4.1006 14.5896 3.50087 14.1858 2.99087 13.6758C2.48087 13.1658 2.07712 12.5661 1.77962 11.8767C1.48212 11.1872 1.33337 10.4506 1.33337 9.66667C1.33337 8.88278 1.48212 8.14611 1.77962 7.45667C2.07712 6.76722 2.48087 6.1675 2.99087 5.6575C3.50087 5.1475 4.1006 4.74375 4.79004 4.44625C5.47949 4.14875 6.21615 4 7.00004 4C7.78393 4 8.5206 4.14875 9.21004 4.44625C9.89948 4.74375 10.4992 5.1475 11.0092 5.6575C11.5192 6.1675 11.923 6.76722 12.2205 7.45667C12.518 8.14611 12.6667 8.88278 12.6667 9.66667C12.6667 9.92167 12.6525 10.1719 12.6242 10.4175C12.5959 10.6631 12.5487 10.9039 12.4825 11.14C12.3503 10.9889 12.1968 10.8614 12.0221 10.7575C11.8474 10.6536 11.6562 10.5828 11.4484 10.545C11.4767 10.4033 11.498 10.2593 11.5121 10.1129C11.5263 9.96653 11.5334 9.81778 11.5334 9.66667C11.5334 8.40111 11.0942 7.32917 10.2159 6.45083C9.33754 5.5725 8.2656 5.13333 7.00004 5.13333C5.73449 5.13333 4.66254 5.5725 3.78421 6.45083C2.90587 7.32917 2.46671 8.40111 2.46671 9.66667C2.46671 10.9322 2.90587 12.0042 3.78421 12.8825C4.66254 13.7608 5.73449 14.2 7.00004 14.2C7.48171 14.2 7.94212 14.1292 8.38129 13.9875C8.82046 13.8458 9.22421 13.6475 9.59254 13.3925C9.70587 13.5531 9.84518 13.6947 10.0105 13.8175C10.1757 13.9403 10.3528 14.0347 10.5417 14.1008C10.06 14.4881 9.51935 14.7903 8.91962 15.0075C8.3199 15.2247 7.68004 15.3333 7.00004 15.3333ZM11.1084 13.0667C10.91 13.0667 10.7424 12.9982 10.6055 12.8612C10.4685 12.7243 10.4 12.5567 10.4 12.3583C10.4 12.16 10.4685 11.9924 10.6055 11.8554C10.7424 11.7185 10.91 11.65 11.1084 11.65C11.3067 11.65 11.4743 11.7185 11.6113 11.8554C11.7482 11.9924 11.8167 12.16 11.8167 12.3583C11.8167 12.5567 11.7482 12.7243 11.6113 12.8612C11.4743 12.9982 11.3067 13.0667 11.1084 13.0667ZM8.87004 12.33L6.43337 9.89333V6.83333H7.56671V9.44L9.66337 11.5367L8.87004 12.33Z" fill="#FFA726"/>
</svg>
